<svg width="1380" height="552" viewBox="0 0 1380 552" fill="none" xmlns="http://www.w3.org/2000/svg">
<path opacity="0.6" d="M119.756 132.17C118.475 132.569 117.194 132.969 115.914 133.368C117.343 132.755 118.765 132.114 120.197 131.511C121.724 130.95 123.233 130.371 124.771 129.821C123.098 130.602 121.423 131.377 119.756 132.17ZM517.872 325.198C518.444 327.195 518.976 329.276 519.528 331.295C519.757 333.596 519.928 336.007 520.119 338.381C519.669 336.013 519.244 333.588 518.766 331.277C518.466 329.26 518.187 327.193 517.872 325.198ZM515.88 318.428C516.084 319.091 516.305 319.718 516.503 320.387C516.633 321.156 516.735 321.985 516.857 322.77C516.534 321.326 516.211 319.864 515.88 318.428ZM100.955 139.386C99.4256 139.817 97.9187 140.274 96.3924 140.716C98.1892 139.985 100.002 139.282 101.808 138.563C102.989 138.163 104.178 137.764 105.362 137.365C103.886 138.03 102.426 138.719 100.955 139.386ZM109.949 136.925C108.017 137.448 106.085 137.972 104.17 138.505C106.53 137.448 108.903 136.416 111.274 135.381C112.952 134.832 114.639 134.309 116.328 133.784C114.192 134.814 112.077 135.883 109.949 136.927V136.925ZM515.375 310.563C516.271 312.76 517.105 315.079 517.974 317.331C518.391 320.83 518.86 324.228 519.241 327.796C518.548 325.298 517.878 322.752 517.152 320.321C516.597 316.994 515.971 313.814 515.375 310.565V310.563ZM512.145 303.138C512.827 304.719 513.525 306.253 514.199 307.857C514.698 310.501 515.214 313.111 515.706 315.778C515.239 314.272 514.753 312.808 514.284 311.316C513.605 308.522 512.857 305.868 512.145 303.14V303.138ZM509.852 297.869C510.028 298.269 510.2 298.668 510.373 299.067L510.594 299.866C510.354 299.191 510.092 298.558 509.852 297.871V297.869ZM72.6842 148.618L71.9059 148.83C72.4772 148.642 73.0402 148.451 73.6115 148.265C73.3052 148.385 72.9905 148.499 72.6842 148.618ZM81.6762 146.298C80.2493 146.657 78.8168 147.011 77.401 147.378C79.057 146.747 80.713 146.104 82.3855 145.481C84.0139 144.974 85.6257 144.448 87.2624 143.949C85.3994 144.734 83.5281 145.501 81.6762 146.298ZM90.7841 144.045C88.8797 144.496 86.9919 144.962 85.1013 145.429C87.3507 144.474 89.6056 143.522 91.8688 142.585C93.8358 141.998 95.8082 141.414 97.7862 140.834C95.4568 141.904 93.108 142.955 90.7897 144.045H90.7841ZM99.8424 141.94C97.6841 142.434 95.5322 142.934 93.3868 143.44C96.0115 142.218 98.6556 141.015 101.297 139.819C103.367 139.232 105.451 138.675 107.534 138.113C104.973 139.386 102.404 140.646 99.8479 141.94H99.8424ZM512.984 298.019C514.133 300.068 515.25 302.187 516.374 304.292C516.848 307.687 517.243 311.234 517.651 314.755C516.727 312.404 515.794 310.066 514.839 307.775C514.243 304.492 513.641 301.194 512.99 298.019H512.984ZM508.82 290.889C509.879 292.705 510.956 294.484 512.005 296.339C512.601 299.161 513.125 302.131 513.661 305.075C512.788 303.02 511.9 301.005 511.011 298.986C510.296 296.265 509.587 293.523 508.825 290.889H508.82ZM504.6 283.667C505.61 285.315 506.576 287.063 507.572 288.754C508.16 290.741 508.695 292.842 509.228 294.917C508.4 293.12 507.589 291.323 506.758 289.547C506.049 287.594 505.361 285.577 504.605 283.667H504.6ZM501.539 278.902C502 279.625 502.472 280.316 502.919 281.045C503.302 282.008 503.669 283.008 504.023 284.001C503.22 282.297 502.392 280.584 501.544 278.902H501.539ZM53.9604 154.468C53.6072 154.548 53.2511 154.624 52.8978 154.706C53.6099 154.496 54.3303 154.29 55.0424 154.081L53.9604 154.468ZM63.0905 152.413C61.3931 152.785 59.7178 153.174 58.0287 153.551C60.002 152.862 61.992 152.187 63.9792 151.508C65.3978 151.109 66.8358 150.729 68.2627 150.34C66.5239 151.021 64.8155 151.722 63.0905 152.413ZM71.9583 150.57C69.9711 150.969 67.9839 151.38 66.0133 151.8C68.3519 150.868 70.6988 149.946 73.054 149.034C74.975 148.523 76.9069 148.021 78.85 147.528C76.5343 148.529 74.2518 149.551 71.9583 150.57ZM80.8592 148.808C78.7046 149.216 76.5564 149.633 74.4147 150.06C76.9539 148.94 79.4875 147.816 82.0433 146.717C84.2706 146.156 86.4868 145.581 88.7252 145.036C86.0922 146.278 83.4757 147.542 80.8592 148.808ZM89.7602 147.139C87.4611 147.552 85.1897 147.995 82.9044 148.423C85.6423 147.107 88.3719 145.769 91.1291 144.476C93.4254 143.927 95.7355 143.396 98.0457 142.879C95.2746 144.278 92.5128 145.698 89.7602 147.139ZM510.23 285.741C511.61 287.538 512.965 289.361 514.32 291.211C514.938 294.993 515.598 298.698 516.167 302.576C515.007 300.432 513.832 298.323 512.65 296.232C511.883 292.647 511.039 289.226 510.23 285.735V285.741ZM505.262 279.38C506.601 281.077 507.939 282.775 509.264 284.508C510.053 287.836 510.878 291.099 511.629 294.494C510.5 292.521 509.358 290.582 508.212 288.646C507.263 285.471 506.242 282.463 505.262 279.374V279.38ZM500.222 273.059C501.528 274.644 502.814 276.278 504.105 277.902C504.994 280.648 505.891 283.376 506.763 286.158C505.701 284.392 504.635 282.633 503.556 280.903C502.474 278.223 501.329 275.677 500.222 273.053V273.059ZM495.53 267.556C496.634 268.853 497.738 270.127 498.842 271.445C499.745 273.556 500.644 275.681 501.544 277.802C500.744 276.546 499.935 275.311 499.129 274.073C497.962 271.836 496.731 269.735 495.536 267.551L495.53 267.556ZM491.592 262.935C492.24 263.672 492.87 264.447 493.524 265.19C493.874 265.817 494.219 266.458 494.57 267.081C493.593 265.651 492.58 264.329 491.597 262.929L491.592 262.935ZM35.1843 159.637L33.6304 159.928C34.6985 159.655 35.7556 159.371 36.832 159.101C36.2772 159.277 35.7363 159.459 35.1843 159.637ZM44.2039 157.997C42.5479 158.283 40.8919 158.568 39.2718 158.866C41.1762 158.267 43.0971 157.668 45.0181 157.084C46.6934 156.685 48.3549 156.266 50.0413 155.868C48.0872 156.572 46.1414 157.282 44.2039 157.997ZM53.1794 156.457C51.0707 156.805 48.9869 157.17 46.8949 157.532C49.3292 156.639 51.8021 155.772 54.2613 154.897C56.254 154.442 58.2577 153.997 60.2615 153.549C57.8916 154.511 55.5309 155.48 53.1794 156.457ZM61.9892 155.059C59.7573 155.404 57.5309 155.755 55.3101 156.112C57.9983 155.001 60.7141 153.915 63.4272 152.828C65.5496 152.371 67.6969 151.934 69.8441 151.494C67.2148 152.678 64.5965 153.869 61.9892 155.067V155.059ZM70.7411 153.779C68.4503 154.099 66.1596 154.416 63.8964 154.758C66.6821 153.488 69.4844 152.23 72.3033 150.985C74.583 150.524 76.8655 150.06 79.1618 149.615C76.3411 150.994 73.5342 152.385 70.7411 153.787V153.779ZM79.4765 152.581C77.1084 152.891 74.7523 153.211 72.4082 153.541C75.3282 152.091 78.2621 150.654 81.2098 149.228C83.5585 148.78 85.9017 148.329 88.2698 147.898C85.3221 149.449 82.4021 151.021 79.4765 152.591V152.581ZM507.5 274.207C509.093 275.747 510.691 277.269 512.272 278.844C512.94 282.401 513.503 286.164 514.099 289.867C512.719 287.991 511.303 286.186 509.904 284.354C509.118 280.947 508.35 277.498 507.5 274.215V274.207ZM501.884 268.871C503.472 270.358 505.055 271.862 506.634 273.382C507.462 276.52 508.182 279.851 508.941 283.12C507.544 281.307 506.143 279.509 504.738 277.728C503.799 274.762 502.877 271.745 501.884 268.879V268.871ZM496.234 263.66C497.791 265.069 499.343 266.491 500.89 267.928C501.831 270.612 502.695 273.458 503.581 276.258C502.218 274.562 500.838 272.909 499.46 271.249C498.398 268.703 497.357 266.121 496.234 263.668V263.66ZM490.684 258.769C492.146 260.049 493.612 261.325 495.067 262.63C496.104 264.896 497.09 267.277 498.086 269.638C496.769 268.07 495.447 266.518 494.12 264.98C492.983 262.897 491.857 260.786 490.684 258.777V258.769ZM485.202 253.976C486.53 255.096 487.838 256.269 489.157 257.413C490.154 259.103 491.131 260.848 492.102 262.606C490.924 261.265 489.734 259.961 488.545 258.649C487.435 257.099 486.337 255.506 485.213 253.994L485.202 253.976ZM481.043 250.581C481.75 251.164 482.459 251.725 483.163 252.312C483.889 253.269 484.62 254.216 485.335 255.196C483.905 253.668 482.487 252.103 481.043 250.595V250.581ZM16.9629 163.895C16.2011 163.998 15.4587 164.11 14.6997 164.216C16.2232 163.893 17.755 163.572 19.295 163.254C18.5195 163.467 17.7329 163.679 16.9629 163.895ZM25.6927 162.752C23.9732 162.974 22.2482 163.194 20.5453 163.423C22.4773 162.888 24.4093 162.345 26.3689 161.826C28.1298 161.475 29.8998 161.132 31.6791 160.795C29.6781 161.434 27.6716 162.085 25.6927 162.752ZM34.4336 161.68C32.3967 161.915 30.3598 162.153 28.3616 162.405C30.7186 161.626 33.0756 160.843 35.4575 160.078C37.5717 159.679 39.683 159.279 41.8193 158.904C39.3463 159.818 36.8706 160.737 34.4336 161.674V161.68ZM43.1579 160.681C40.9333 160.921 38.7419 161.175 36.5339 161.428C39.1688 160.423 41.8193 159.424 44.4854 158.432C46.7458 158.033 49.0035 157.634 51.2833 157.254C48.584 158.392 45.8406 159.521 43.1579 160.677V160.681ZM51.8684 159.757C49.5417 159.99 47.2344 160.236 44.9325 160.482C47.7588 159.269 50.6153 158.085 53.4747 156.887C55.7682 156.511 58.0866 156.152 60.405 155.794C57.5512 157.116 54.6918 158.426 51.8684 159.757ZM60.4712 158.958C58.1115 159.157 55.7517 159.373 53.4222 159.601C56.3616 158.215 59.3396 156.853 62.3094 155.491C64.6609 155.131 67.0262 154.788 69.4025 154.448C66.4162 155.962 63.4299 157.448 60.4712 158.958ZM69.052 158.233C66.6481 158.432 64.2497 158.62 61.8761 158.832C64.9121 157.276 67.9977 155.746 71.0723 154.214C73.479 153.875 75.8857 153.531 78.3145 153.216C75.216 154.882 72.1285 156.557 69.052 158.243V158.233ZM504.301 262.847C506.101 264.099 507.914 265.306 509.708 266.586C510.511 270.339 511.364 273.995 512.112 277.862C510.509 276.264 508.88 274.758 507.266 273.2C506.322 269.663 505.29 266.304 504.299 262.857L504.301 262.847ZM498.031 258.531C499.841 259.756 501.646 261.008 503.449 262.26C504.423 265.613 505.43 268.897 506.36 272.342C504.749 270.794 503.137 269.25 501.511 267.748C500.393 264.597 499.187 261.611 498.028 258.541L498.031 258.531ZM491.755 254.375C493.538 255.542 495.32 256.694 497.095 257.888C498.199 260.818 499.347 263.714 500.435 266.712C498.853 265.252 497.258 263.842 495.665 262.412C494.388 259.684 493.057 257.063 491.752 254.385L491.755 254.375ZM485.489 250.333C487.241 251.449 488.989 252.581 490.733 253.728C491.973 256.255 493.217 258.765 494.437 261.343C492.877 259.952 491.313 258.573 489.745 257.207C488.335 254.873 486.897 252.624 485.489 250.333ZM479.252 246.405C480.93 247.442 482.605 248.49 484.278 249.55C485.575 251.617 486.869 253.688 488.142 255.789C486.676 254.529 485.2 253.303 483.726 252.069C482.233 250.157 480.731 248.292 479.238 246.405H479.252ZM473.34 242.83C474.825 243.725 476.312 244.613 477.792 245.522C479.061 247.108 480.325 248.705 481.581 250.315C480.319 249.27 479.054 248.235 477.786 247.212C476.299 245.728 474.806 244.292 473.326 242.838L473.34 242.83ZM468.289 239.776C469.275 240.353 470.249 240.974 471.231 241.556C471.885 242.193 472.537 242.846 473.191 243.485C471.554 242.211 469.907 241.02 468.275 239.776H468.289ZM7.5596 166.591C5.71593 166.725 3.90814 166.868 2.08655 167.008C4.14734 166.537 6.22376 166.071 8.31583 165.61C10.0298 165.359 11.7713 165.115 13.4991 164.871C11.5036 165.434 9.53574 166.014 7.5596 166.591ZM16.1155 166.018C14.0124 166.153 11.9121 166.293 9.83382 166.437C12.2681 165.734 14.708 165.039 17.1781 164.34C19.2095 164.06 21.2767 163.793 23.3439 163.527C20.9234 164.35 18.5278 165.183 16.1266 166.018H16.1155ZM24.6715 165.506C22.4442 165.63 20.2141 165.752 18.0255 165.89C20.6474 164.985 23.2694 164.078 25.9328 163.19C28.1629 162.905 30.4067 162.626 32.6644 162.355C29.9817 163.393 27.3321 164.45 24.677 165.506H24.6715ZM33.2026 165.053C30.8842 165.167 28.5842 165.287 26.3026 165.412C29.0902 164.308 31.875 163.202 34.6985 162.117C37.039 161.84 39.3905 161.56 41.7475 161.298C38.8771 162.539 36.0399 163.795 33.2081 165.053H33.2026ZM41.7144 164.654C39.338 164.755 36.9921 164.869 34.6433 164.981C37.5606 163.687 40.4724 162.385 43.4283 161.117C45.8047 160.859 48.2031 160.609 50.6043 160.366C47.629 161.786 44.6676 163.217 41.7199 164.658L41.7144 164.654ZM50.1599 164.338C47.7698 164.422 45.3879 164.51 43.0309 164.606C46.0669 163.132 49.0891 161.656 52.1554 160.212C54.5373 159.974 56.9523 159.761 59.3672 159.545C56.2853 161.132 53.218 162.734 50.1655 164.35L50.1599 164.338ZM58.5641 164.086C56.1657 164.148 53.77 164.214 51.4047 164.286C54.5097 162.65 57.6257 161.015 60.7666 159.403C63.1898 159.187 65.6232 158.98 68.0667 158.78C64.8891 160.544 61.7234 162.314 58.5696 164.09L58.5641 164.086ZM501.185 252.091C503.189 253.049 505.193 253.974 507.194 254.951C508.038 258.442 508.764 262.17 509.534 265.809C507.716 264.521 505.883 263.307 504.059 262.042C503.117 258.709 502.207 255.296 501.191 252.095L501.185 252.091ZM494.341 248.833C496.347 249.77 498.351 250.737 500.355 251.695C501.359 254.837 502.265 258.18 503.206 261.455C501.37 260.183 499.535 258.901 497.686 257.661C496.59 254.701 495.511 251.679 494.346 248.829L494.341 248.833ZM487.504 245.704C489.483 246.606 491.465 247.485 493.444 248.406C494.592 251.184 495.652 254.124 496.756 257.016C494.942 255.803 493.118 254.649 491.299 253.461C490.049 250.858 488.801 248.21 487.51 245.708L487.504 245.704ZM480.646 242.61C482.611 243.483 484.573 244.376 486.538 245.268C487.819 247.705 489.039 250.261 490.272 252.8C488.456 251.617 486.64 250.431 484.816 249.277C483.441 247.032 482.07 244.767 480.651 242.614L480.646 242.61ZM473.828 239.614C475.738 240.441 477.648 241.266 479.555 242.113C480.935 244.182 482.266 246.339 483.604 248.488C481.841 247.377 480.069 246.305 478.3 245.216C476.823 243.341 475.346 241.44 473.834 239.624L473.828 239.614ZM467.135 236.753C468.95 237.522 470.763 238.297 472.575 239.077C474.013 240.789 475.429 242.56 476.842 244.336C475.134 243.293 473.423 242.253 471.709 241.232C470.196 239.73 468.681 238.212 467.141 236.762L467.135 236.753ZM460.702 234.05C462.314 234.717 463.926 235.404 465.537 236.083C466.901 237.358 468.257 238.654 469.606 239.972C468.079 239.071 466.548 238.198 465.016 237.314C463.581 236.211 462.148 235.099 460.702 234.05ZM455.618 231.995C456.57 232.381 457.522 232.76 458.475 233.15C459.457 233.859 460.448 234.548 461.428 235.283C459.493 234.178 457.558 233.052 455.618 231.989V231.995ZM14.777 169.519C12.4613 169.495 10.1485 169.475 7.87699 169.463C10.6756 168.457 13.4972 167.459 16.3419 166.467C18.6354 166.319 20.9566 166.181 23.2887 166.048C20.4322 167.2 17.5977 168.358 14.777 169.519ZM23.1204 169.618C20.7578 169.585 18.4091 169.553 16.0879 169.529C19.008 168.33 21.952 167.141 24.9199 165.962C27.2742 165.828 29.6367 165.7 32.0241 165.578C29.0212 166.914 26.068 168.266 23.1204 169.618ZM31.45 169.754C29.0516 169.708 26.6863 169.67 24.3237 169.636C27.3487 168.252 30.392 166.876 33.4538 165.51C35.8494 165.393 38.2396 165.273 40.6628 165.169C37.5661 166.685 34.5081 168.218 31.45 169.754ZM39.7603 169.926C37.3453 169.87 34.9635 169.824 32.5844 169.776C35.7013 168.216 38.8357 166.663 41.9876 165.117C44.3695 165.017 46.7845 164.931 49.2022 164.847C46.0255 166.527 42.8929 168.226 39.752 169.926H39.7603ZM48.0403 170.148C45.6253 170.076 43.2186 170.01 40.845 169.948C44.03 168.225 47.2325 166.508 50.4525 164.795C52.8482 164.715 55.2687 164.646 57.6975 164.58C54.4434 166.423 51.2391 168.286 48.032 170.142L48.0403 170.148ZM497.551 241.548C499.758 242.209 501.953 242.86 504.155 243.531C505.127 247.102 506.126 250.617 507.037 254.315C505.016 253.333 502.993 252.394 500.965 251.428C499.869 248.03 498.688 244.835 497.542 241.548H497.551ZM490.165 239.329C492.373 239.976 494.567 240.651 496.769 241.312C497.901 244.529 499.052 247.703 500.134 251.024C498.103 250.053 496.074 249.071 494.04 248.124C492.776 245.117 491.454 242.239 490.157 239.329H490.165ZM482.796 237.196C484.979 237.829 487.159 238.444 489.348 239.087C490.623 241.937 491.909 244.759 493.143 247.697C491.131 246.764 489.119 245.883 487.107 244.969C485.688 242.317 484.228 239.776 482.787 237.196H482.796ZM475.404 235.065C477.577 235.684 479.757 236.319 481.932 236.948C483.345 239.459 484.764 241.941 486.141 244.537C484.126 243.625 482.114 242.704 480.096 241.809C478.545 239.513 476.964 237.304 475.396 235.065H475.404ZM468.052 233.004C470.191 233.603 472.327 234.188 474.469 234.801C475.99 236.958 477.505 239.105 479.006 241.32C477.033 240.449 475.057 239.61 473.081 238.758C471.413 236.8 469.722 234.913 468.044 233.004H468.052ZM460.735 230.979C462.827 231.553 464.921 232.132 467.017 232.716C468.623 234.536 470.235 236.353 471.825 238.214C469.893 237.378 467.941 236.543 465.998 235.724C464.238 234.122 462.482 232.557 460.727 230.979H460.735ZM453.534 229.022C455.527 229.554 457.521 230.094 459.515 230.641C461.147 232.095 462.773 233.56 464.392 235.035C462.557 234.266 460.721 233.519 458.889 232.764C457.097 231.512 455.312 230.268 453.526 229.022H453.534ZM446.701 227.206C448.472 227.675 450.242 228.143 452.016 228.618C453.567 229.693 455.115 230.776 456.659 231.867C455.039 231.202 453.419 230.547 451.798 229.902C450.093 228.994 448.392 228.105 446.692 227.206H446.701ZM441.156 225.734C442.26 226.024 443.378 226.333 444.484 226.619C445.368 227.08 446.245 227.554 447.126 228.017C445.127 227.234 443.137 226.501 441.147 225.734H441.156ZM12.9112 174.37C10.5404 174.17 8.17507 173.982 5.85117 173.797C8.86139 172.518 11.8974 171.249 14.9591 169.99C17.3235 170.014 19.709 170.042 22.1157 170.074C19.0264 171.497 15.9582 172.929 12.9112 174.37ZM21.0614 175.043L13.9407 174.444C17.0429 172.979 20.1709 171.525 23.3246 170.082C25.7175 170.116 28.1132 170.15 30.5447 170.196C27.3616 171.808 24.2005 173.424 21.0614 175.043ZM29.2089 175.724L22.0329 175.125C25.218 173.483 28.4297 171.851 31.6681 170.228C34.0692 170.274 36.4787 170.323 38.913 170.377C35.6581 172.152 32.4234 173.934 29.2089 175.724ZM37.3453 176.417L30.1694 175.804C33.4298 173.994 36.7133 172.197 40.0198 170.411C42.4099 170.467 44.8359 170.535 47.2675 170.611C43.9316 172.531 40.6242 174.466 37.3453 176.417ZM493.963 231.454L501.103 232.545C502.121 235.912 503.051 239.465 504.001 242.974C501.793 242.301 499.565 241.644 497.346 240.977C496.234 237.773 495.149 234.53 493.963 231.454ZM486.074 230.256C488.437 230.613 490.819 230.979 493.195 231.34C494.366 234.378 495.456 237.579 496.565 240.745C494.343 240.078 492.116 239.397 489.9 238.748C488.636 235.886 487.388 232.996 486.074 230.256ZM478.195 229.073C480.557 229.429 482.912 229.779 485.28 230.138C486.588 232.844 487.83 235.69 489.086 238.508C486.878 237.857 484.67 237.234 482.462 236.595C481.043 234.062 479.646 231.502 478.195 229.071V229.073ZM470.323 227.891C472.664 228.241 475.015 228.598 477.37 228.95C478.807 231.346 480.196 233.855 481.59 236.339C479.382 235.7 477.174 235.051 474.966 234.426C473.42 232.229 471.894 230.006 470.323 227.889V227.891ZM462.482 226.733C464.806 227.076 467.116 227.414 469.448 227.761C470.997 229.836 472.506 232.005 474.019 234.152C471.83 233.533 469.647 232.94 467.461 232.331C465.808 230.456 464.163 228.546 462.482 226.731V226.733ZM454.674 225.58L461.53 226.591C463.186 228.367 464.801 230.212 466.426 232.053C464.254 231.454 462.085 230.855 459.921 230.256C458.166 228.678 456.438 227.092 454.674 225.578V225.58ZM446.946 224.452L453.603 225.423C455.314 226.885 457.006 228.4 458.701 229.916C456.587 229.339 454.481 228.78 452.372 228.215C450.567 226.945 448.765 225.662 446.946 224.45V224.452ZM439.384 223.356L445.677 224.268C447.41 225.425 449.132 226.615 450.854 227.811C448.83 227.272 446.806 226.736 444.782 226.202C442.986 225.241 441.189 224.276 439.398 223.354L439.384 223.356ZM432.191 222.317C434.038 222.581 435.895 222.852 437.744 223.116C439.356 223.935 440.966 224.767 442.574 225.612C440.764 225.139 438.959 224.676 437.154 224.214C435.501 223.573 433.845 222.93 432.191 222.315V222.317ZM426.531 221.518L429.807 221.986C430.867 222.385 431.926 222.76 432.986 223.16C430.842 222.601 428.678 222.046 426.531 221.508V221.518ZM10.5625 180.527C8.18335 180.167 5.81805 179.808 3.48862 179.45C6.65156 177.913 9.86694 176.385 13.0906 174.857L20.2666 175.456C17.0153 177.132 13.7668 178.827 10.5625 180.527ZM18.5416 181.725C16.1496 181.37 13.7797 181.015 11.4319 180.661C14.6721 178.943 17.962 177.238 21.2602 175.534C23.6531 175.734 26.0404 175.933 28.472 176.133C25.1407 177.992 21.8122 179.852 18.5416 181.725ZM26.529 182.903C24.1195 182.552 21.757 182.2 19.3916 181.849C22.7036 179.966 26.057 178.088 29.4214 176.217L36.6498 176.832C33.2578 178.849 29.8685 180.87 26.529 182.901V182.903ZM489.95 221.686L497.617 221.886C498.743 225.227 499.872 228.566 500.929 232.035L493.753 230.939C492.525 227.773 491.23 224.742 489.95 221.684V221.686ZM481.581 221.452C484.115 221.528 486.671 221.596 489.218 221.668C490.49 224.684 491.766 227.697 492.983 230.827C490.59 230.462 488.189 230.094 485.807 229.735C484.432 226.899 483.005 224.188 481.581 221.45V221.452ZM473.224 221.195C475.76 221.273 478.289 221.355 480.836 221.43C482.244 224.127 483.651 226.823 485.015 229.619C482.622 229.257 480.245 228.904 477.861 228.546C476.34 226.03 474.778 223.621 473.224 221.193V221.195ZM464.9 220.937C467.403 221.019 469.942 221.091 472.46 221.171C473.994 223.567 475.534 225.946 477.033 228.418C474.656 228.061 472.266 227.699 469.898 227.348C468.253 225.157 466.572 223.056 464.9 220.935V220.937ZM456.592 220.646C459.098 220.733 461.585 220.825 464.105 220.909C465.761 222.992 467.4 225.067 469.021 227.216C466.65 226.863 464.301 226.519 461.938 226.172C460.172 224.286 458.378 222.467 456.592 220.644V220.646ZM448.335 220.354C450.794 220.444 453.275 220.528 455.745 220.616C457.498 222.413 459.253 224.188 460.989 226.03C458.647 225.684 456.305 225.339 453.965 224.995C452.094 223.416 450.214 221.892 448.335 220.352V220.354ZM440.129 220.042C442.555 220.136 444.976 220.242 447.415 220.322C449.245 221.816 451.075 223.304 452.891 224.836L445.991 223.837C444.04 222.547 442.083 221.299 440.129 220.04V220.042ZM432.026 219.723C434.37 219.819 436.721 219.911 439.08 220C440.963 221.199 442.845 222.415 444.719 223.649C442.478 223.322 440.239 222.997 438.004 222.675C436.014 221.668 434.018 220.703 432.026 219.721V219.723ZM424.118 219.401C426.326 219.495 428.534 219.585 430.767 219.675C432.633 220.59 434.501 221.506 436.364 222.437L430.016 221.526C428.049 220.811 426.083 220.108 424.118 219.399V219.401ZM416.636 219.076C418.568 219.16 420.5 219.248 422.457 219.329C424.174 219.945 425.888 220.562 427.602 221.183L422.037 220.384C420.235 219.945 418.436 219.513 416.636 219.072V219.076ZM410.986 218.83C412.035 218.878 413.098 218.92 414.152 218.968L417.119 219.691C415.066 219.397 413.032 219.116 410.986 218.828V218.83ZM7.78591 187.928C5.41785 187.417 3.06634 186.904 0.750716 186.388C4.04062 184.599 7.36824 182.814 10.7336 181.032C13.0961 181.39 15.4725 181.747 17.8792 182.105C14.4899 184.042 11.1117 185.983 7.78591 187.928ZM15.6298 189.596C13.2488 189.099 10.8937 188.599 8.56423 188.096C11.9167 186.136 15.305 184.181 18.7292 182.23C21.1056 182.582 23.4792 182.935 25.9052 183.287C22.4515 185.385 19.0264 187.488 15.6298 189.596ZM485.89 212.281C488.583 212.068 491.307 211.836 494.021 211.614C495.21 214.798 496.339 218.101 497.459 221.422C494.883 221.357 492.315 221.291 489.754 221.223C488.487 218.185 487.214 215.169 485.89 212.281ZM477.058 212.967C479.743 212.767 482.451 212.551 485.155 212.339C486.477 215.211 487.747 218.199 489.019 221.197C486.453 221.127 483.88 221.057 481.33 220.981C479.931 218.273 478.526 215.557 477.071 212.959L477.058 212.967ZM468.262 213.604C470.944 213.415 473.633 213.22 476.329 213.02C477.775 215.593 479.177 218.275 480.577 220.957C478.01 220.881 475.462 220.799 472.907 220.719C471.386 218.309 469.851 215.902 468.275 213.596L468.262 213.604ZM459.523 214.231C462.168 214.055 464.859 213.847 467.527 213.658C469.092 215.942 470.621 218.319 472.145 220.695C469.606 220.616 467.039 220.544 464.514 220.46C462.871 218.351 461.221 216.242 459.546 214.223L459.523 214.231ZM450.788 214.784C453.446 214.614 456.085 214.458 458.759 214.281C460.432 216.278 462.071 218.355 463.727 220.432C461.177 220.346 458.657 220.252 456.12 220.164C454.354 218.343 452.593 216.517 450.802 214.776L450.788 214.784ZM442.133 215.331C444.733 215.177 447.377 215 449.99 214.834C451.765 216.555 453.512 218.345 455.259 220.134C452.748 220.046 450.222 219.961 447.725 219.869C445.881 218.333 444.026 216.793 442.158 215.323L442.133 215.331ZM433.505 215.814C436.097 215.673 438.675 215.539 441.283 215.385C443.135 216.831 444.97 218.335 446.803 219.837C444.299 219.743 441.835 219.637 439.337 219.547C437.413 218.273 435.473 217.015 433.519 215.806L433.505 215.814ZM424.974 216.274C427.491 216.146 430.025 216.006 432.556 215.874C434.488 217.057 436.384 218.287 438.291 219.515C435.848 219.419 433.403 219.315 430.974 219.226C428.99 218.221 426.992 217.218 424.988 216.266L424.974 216.274ZM416.567 216.693C419 216.58 421.439 216.46 423.887 216.334C425.832 217.256 427.775 218.213 429.716 219.17L422.617 218.872C420.613 218.131 418.596 217.39 416.581 216.675L416.567 216.693ZM408.32 217.061C410.614 216.961 412.907 216.861 415.22 216.755C417.133 217.42 419.048 218.111 420.964 218.8L414.271 218.509C412.297 218.013 410.31 217.524 408.334 217.053L408.32 217.061ZM400.705 217.4C402.637 217.322 404.614 217.222 406.554 217.139C408.293 217.551 410.035 217.972 411.781 218.401L405.985 218.139L400.705 217.4ZM394.838 217.6C395.881 217.562 396.91 217.532 397.957 217.492L400.777 217.891C398.809 217.788 396.825 217.696 394.852 217.598L394.838 217.6ZM481.501 203.22C484.344 202.735 487.236 202.208 490.101 201.703C491.376 204.788 492.62 207.939 493.833 211.157C491.109 211.381 488.371 211.612 485.663 211.826C484.314 208.886 482.917 206.032 481.507 203.212L481.501 203.22ZM472.241 204.772C475.086 204.301 477.938 203.822 480.797 203.334C482.202 206.13 483.582 208.966 484.937 211.876C482.216 212.09 479.495 212.303 476.793 212.505C475.313 209.867 473.784 207.311 472.241 204.772ZM463.023 206.278C465.853 205.825 468.694 205.359 471.546 204.88C473.072 207.392 474.582 209.939 476.067 212.553C473.351 212.755 470.644 212.952 467.947 213.142C466.338 210.804 464.685 208.539 463.031 206.278H463.023ZM453.871 207.746C456.667 207.313 459.507 206.845 462.328 206.392C463.967 208.627 465.601 210.882 467.207 213.202C464.519 213.402 461.806 213.602 459.137 213.775C457.409 211.718 455.643 209.733 453.879 207.746H453.871ZM444.733 209.118C447.537 208.699 450.33 208.291 453.156 207.854C454.906 209.819 456.653 211.79 458.373 213.825C455.673 214.005 453.004 214.165 450.322 214.333C448.481 212.555 446.609 210.842 444.741 209.118H444.733ZM435.697 210.474C438.437 210.075 441.236 209.641 443.996 209.23C445.845 210.929 447.694 212.625 449.516 214.384C446.863 214.55 444.189 214.732 441.556 214.888C439.624 213.384 437.664 211.936 435.705 210.474H435.697ZM426.666 211.726C429.426 211.345 432.15 210.989 434.929 210.59C436.861 212.028 438.793 213.46 440.725 214.942C438.065 215.097 435.443 215.229 432.799 215.375C430.759 214.133 428.714 212.937 426.674 211.726H426.666ZM417.757 212.945C420.426 212.591 423.13 212.212 425.824 211.842C427.831 213.028 429.837 214.209 431.838 215.425C429.244 215.567 426.638 215.713 424.063 215.844C421.971 214.862 419.865 213.909 417.765 212.945H417.757ZM408.925 214.091C411.541 213.759 414.17 213.421 416.81 213.074C418.861 214.011 420.917 214.946 422.965 215.902C420.412 216.032 417.875 216.152 415.339 216.27C413.216 215.533 411.077 214.818 408.941 214.091H408.925ZM400.225 215.163C402.742 214.86 405.268 214.549 407.801 214.231C409.863 214.928 411.925 215.629 413.987 216.33C411.53 216.444 409.081 216.553 406.639 216.657C404.514 216.154 402.381 215.663 400.242 215.163H400.225ZM391.907 216.178C394.195 215.914 396.532 215.613 398.837 215.335C400.843 215.802 402.847 216.266 404.856 216.733C402.571 216.827 400.28 216.933 398.012 217.013L391.907 216.178ZM383.928 217.055C385.942 216.831 387.938 216.623 389.964 216.392L395.227 217.115C393.212 217.19 391.206 217.258 389.202 217.326C387.449 217.238 385.705 217.145 383.944 217.055H383.928ZM378.187 217.684C379.122 217.584 380.069 217.484 381.007 217.374L383.767 217.518C381.915 217.575 380.06 217.627 378.203 217.674L378.187 217.684ZM476.947 194.489C479.911 193.74 482.939 192.931 485.937 192.152C487.292 195.12 488.622 198.144 489.911 201.241C487.035 201.749 484.129 202.278 481.275 202.765C479.873 199.946 478.436 197.188 476.964 194.489H476.947ZM467.287 196.874C470.279 196.137 473.249 195.426 476.263 194.677C477.735 197.357 479.175 200.098 480.582 202.899C477.698 203.39 474.833 203.868 471.968 204.341C470.45 201.796 468.894 199.3 467.307 196.874H467.287ZM457.705 199.21C460.652 198.503 463.63 197.77 466.608 197.039C468.187 199.452 469.741 201.926 471.275 204.445C468.411 204.919 465.553 205.385 462.703 205.843C461.072 203.596 459.413 201.369 457.724 199.21H457.705ZM448.18 201.475C451.108 200.792 454.067 200.077 457.012 199.376C458.693 201.519 460.349 203.726 461.98 205.967C459.137 206.422 456.278 206.891 453.46 207.327C451.749 205.341 449.988 203.374 448.199 201.475H448.18ZM438.686 203.636C441.614 202.973 444.534 202.32 447.487 201.639C449.267 203.524 451.023 205.471 452.773 207.43C449.924 207.87 447.106 208.283 444.277 208.707C442.434 206.991 440.584 205.279 438.705 203.636H438.686ZM429.302 205.767C432.155 205.142 435.098 204.447 437.968 203.796C439.836 205.427 441.683 207.117 443.529 208.814C440.739 209.23 437.907 209.677 435.139 210.075C433.232 208.621 431.294 207.163 429.335 205.767H429.302ZM419.918 207.764C422.81 207.149 425.658 206.566 428.579 205.935C430.511 207.319 432.443 208.757 434.375 210.196C431.554 210.596 428.791 210.957 425.992 211.343C423.997 210.131 421.974 208.914 419.94 207.758L419.918 207.764ZM410.666 209.715C413.465 209.14 416.305 208.527 419.128 207.93C421.146 209.074 423.15 210.268 425.156 211.457C422.415 211.834 419.658 212.224 416.937 212.583C414.872 211.612 412.783 210.636 410.694 209.709L410.666 209.715ZM401.47 211.569C404.23 211.019 407.009 210.47 409.808 209.897C411.875 210.81 413.948 211.764 416.001 212.711C413.28 213.068 410.583 213.406 407.887 213.747C405.767 213.01 403.628 212.268 401.492 211.563L401.47 211.569ZM392.362 213.34C395.056 212.823 397.758 212.301 400.476 211.762C402.571 212.451 404.672 213.172 406.769 213.885C404.132 214.217 401.505 214.541 398.887 214.858C396.726 214.343 394.548 213.827 392.379 213.334L392.362 213.34ZM383.53 215.032C386.064 214.564 388.647 214.053 391.203 213.566C393.298 214.043 395.401 214.538 397.504 215.03C394.992 215.329 392.475 215.629 389.986 215.92L383.53 215.032ZM374.773 216.585C377.185 216.158 379.575 215.749 382.007 215.303L388.043 216.132C385.68 216.402 383.334 216.653 380.988 216.907C378.924 216.795 376.845 216.689 374.784 216.579L374.773 216.585ZM366.915 217.983C368.83 217.656 370.779 217.294 372.711 216.955C374.483 217.051 376.274 217.141 378.063 217.232C376.227 217.432 374.353 217.652 372.543 217.832C370.674 217.874 368.789 217.931 366.926 217.973L366.915 217.983ZM361.585 218.892C362.336 218.766 363.065 218.66 363.818 218.533C364.494 218.519 365.182 218.497 365.861 218.481C364.438 218.608 363.017 218.739 361.596 218.872L361.585 218.892ZM472.203 186.111C475.3 185.112 478.471 184.022 481.609 182.973C483.027 185.793 484.369 188.765 485.732 191.717C482.724 192.5 479.682 193.315 476.704 194.064C475.239 191.351 473.748 188.679 472.214 186.101L472.203 186.111ZM462.145 189.286C465.284 188.288 468.375 187.347 471.529 186.323C473.058 188.885 474.538 191.553 476.012 194.239C472.976 195.002 470 195.717 466.995 196.458C465.419 194.008 463.801 191.611 462.156 189.276L462.145 189.286ZM452.187 192.428C455.262 191.475 458.381 190.479 461.489 189.494C463.128 191.811 464.734 194.201 466.327 196.624C463.335 197.357 460.34 198.096 457.373 198.807C455.673 196.627 453.948 194.498 452.198 192.418L452.187 192.428ZM442.282 195.456C445.356 194.527 448.434 193.592 451.539 192.632C453.274 194.701 454.992 196.814 456.694 198.973C453.719 199.684 450.741 200.395 447.794 201.082C445.983 199.154 444.142 197.291 442.293 195.446L442.282 195.456ZM432.437 198.379C435.492 197.479 438.542 196.582 441.628 195.651C443.463 197.481 445.29 199.336 447.101 201.243C444.126 201.934 441.183 202.593 438.233 203.26C436.323 201.583 434.386 199.975 432.448 198.369L432.437 198.379ZM422.719 201.251C425.703 200.394 428.761 199.454 431.772 198.577C433.704 200.175 435.622 201.773 437.526 203.418C434.62 204.073 431.664 204.776 428.783 205.415C426.782 203.979 424.77 202.613 422.73 201.241L422.719 201.251ZM412.982 203.957C416.018 203.115 418.977 202.316 422.029 201.443C424.036 202.803 426.048 204.159 428.04 205.563C425.09 206.208 422.206 206.793 419.283 207.412C417.199 206.226 415.093 205.092 412.993 203.947L412.982 203.957ZM403.416 206.616C406.336 205.817 409.308 204.98 412.248 204.159C414.329 205.289 416.41 206.414 418.483 207.578C415.62 208.177 412.736 208.81 409.899 209.392C407.76 208.437 405.593 207.528 403.427 206.606L403.416 206.616ZM393.886 209.148C396.797 208.381 399.682 207.628 402.637 206.831C404.776 207.742 406.915 208.641 409.052 209.573C406.19 210.157 403.366 210.708 400.532 211.269C398.326 210.54 396.113 209.845 393.897 209.138L393.886 209.148ZM384.474 211.581C387.3 210.859 390.141 210.127 392.997 209.384C395.174 210.079 397.352 210.764 399.53 211.471C396.748 212.019 393.977 212.558 391.217 213.086C388.973 212.563 386.734 212.072 384.474 211.57V211.581ZM375.289 213.919C377.983 213.254 380.729 212.539 383.45 211.846C385.658 212.333 387.836 212.817 390.035 213.31C387.347 213.821 384.653 214.337 381.99 214.824L375.289 213.919ZM366.098 216.116C368.734 215.487 371.342 214.882 374.005 214.227L380.455 215.097C377.836 215.575 375.25 216.024 372.658 216.482C370.47 216.352 368.298 216.228 366.109 216.106L366.098 216.116ZM357.465 218.179C359.783 217.644 362.157 217.055 364.5 216.497L370.63 216.841C368.336 217.24 365.996 217.682 363.73 218.065C361.632 218.101 359.562 218.131 357.476 218.169L357.465 218.179ZM349.248 220.028C351.293 219.571 353.294 219.156 355.356 218.682L360.379 218.602C358.257 218.954 356.17 219.275 354.062 219.615C352.458 219.753 350.866 219.871 349.259 220.018L349.248 220.028ZM343.152 221.363L345.787 220.785L347.769 220.624C346.248 220.851 344.681 221.123 343.163 221.353L343.152 221.363ZM467.149 178.056C470.365 176.808 473.633 175.5 476.895 174.202C478.413 176.94 479.931 179.656 481.399 182.524C478.247 183.579 475.051 184.667 471.957 185.674C470.401 183.047 468.78 180.547 467.16 178.046L467.149 178.056ZM456.786 181.987C460.034 180.751 463.233 179.564 466.512 178.294C468.126 180.783 469.746 183.271 471.311 185.883C468.129 186.912 465.027 187.86 461.875 188.861C460.2 186.5 458.494 184.236 456.786 181.987ZM446.527 185.881C449.698 184.701 452.933 183.453 456.14 182.232C457.848 184.469 459.554 186.72 461.218 189.059C458.097 190.057 454.961 191.056 451.87 192.008C450.104 189.913 448.318 187.884 446.521 185.881H446.527ZM436.315 189.624C439.508 188.462 442.663 187.323 445.906 186.123C447.697 188.12 449.477 190.133 451.235 192.212C448.111 193.179 445.017 194.117 441.926 195.05C440.056 193.205 438.18 191.396 436.295 189.624H436.315ZM426.15 193.269C429.304 192.144 432.465 191.014 435.65 189.856C437.528 191.613 439.393 193.41 441.244 195.248C438.142 196.182 435.067 197.089 431.993 197.994C430.061 196.39 428.118 194.804 426.15 193.269ZM416.134 196.832C419.225 195.757 422.382 194.611 425.518 193.5C427.472 195.026 429.409 196.598 431.341 198.19C428.305 199.084 425.22 200.017 422.211 200.88C420.188 199.512 418.171 198.144 416.139 196.832H416.134ZM406.104 200.227C409.228 199.168 412.308 198.154 415.466 197.057C417.492 198.361 419.501 199.713 421.51 201.074C418.43 201.952 415.422 202.763 412.375 203.612C410.294 202.471 408.21 201.323 406.109 200.227H406.104ZM396.256 203.56C399.276 202.561 402.359 201.495 405.411 200.46C407.498 201.547 409.573 202.681 411.652 203.814C408.668 204.642 405.657 205.501 402.704 206.3C400.562 205.379 398.415 204.445 396.262 203.56H396.256ZM386.406 206.755C389.442 205.779 392.45 204.83 395.514 203.818C397.65 204.692 399.784 205.615 401.92 206.524C398.922 207.335 395.98 208.089 393.013 208.868C390.822 208.151 388.614 207.43 386.406 206.747V206.755ZM376.672 209.843C379.628 208.918 382.6 207.976 385.586 207.017C387.767 207.69 389.95 208.399 392.133 209.098C389.222 209.861 386.324 210.611 383.439 211.347C381.187 210.836 378.926 210.326 376.677 209.835L376.672 209.843ZM367.141 212.817C369.987 211.952 372.882 211.031 375.761 210.133C377.969 210.614 380.196 211.117 382.415 211.612C379.586 212.329 376.76 213.048 373.961 213.737L367.141 212.817ZM357.586 215.639C360.401 214.808 363.184 214.009 366.026 213.146C368.234 213.442 370.459 213.745 372.678 214.045C369.901 214.726 367.158 215.367 364.417 216.02C362.14 215.876 359.858 215.761 357.592 215.631L357.586 215.639ZM348.498 218.323C351.048 217.592 353.667 216.793 356.245 216.036C358.423 216.16 360.622 216.282 362.816 216.402C360.299 217.001 357.733 217.642 355.237 218.215C352.991 218.245 350.739 218.285 348.503 218.315L348.498 218.323ZM339.511 220.827C341.956 220.148 344.347 219.523 346.814 218.83C348.848 218.804 350.904 218.766 352.955 218.73C350.488 219.291 348.081 219.795 345.636 220.328C343.599 220.484 341.551 220.658 339.517 220.819L339.511 220.827ZM331.402 223.04C333.271 222.537 335.15 222.022 337.033 221.504C338.736 221.371 340.461 221.223 342.18 221.081C340.342 221.48 338.479 221.904 336.66 222.291C334.916 222.529 333.155 222.786 331.408 223.032L331.402 223.04ZM326.559 224.364C326.942 224.26 327.337 224.147 327.72 224.045C328.234 223.975 328.755 223.897 329.269 223.825C328.364 224.003 327.472 224.171 326.564 224.356L326.559 224.364ZM462.03 170.268C465.386 168.774 468.763 167.255 472.161 165.71C473.721 168.266 475.175 171.048 476.666 173.753C473.392 175.055 470.114 176.367 466.884 177.619C465.275 175.135 463.686 172.622 462.03 170.268ZM451.304 174.961C454.669 173.487 457.997 172.055 461.392 170.547C463.048 172.888 464.629 175.4 466.23 177.869C462.94 179.143 459.725 180.335 456.465 181.575C454.754 179.329 453.054 177.09 451.299 174.961H451.304ZM440.717 179.594C443.996 178.196 447.357 176.688 450.68 175.234C452.428 177.351 454.119 179.594 455.82 181.825C452.596 183.051 449.347 184.305 446.16 185.492C444.366 183.487 442.55 181.501 440.711 179.594H440.717ZM430.149 184.03C433.461 182.632 436.743 181.302 440.104 179.862C441.937 181.759 443.734 183.74 445.528 185.729C442.282 186.928 439.097 188.078 435.887 189.246C433.983 187.473 432.07 185.719 430.143 184.03H430.149ZM419.7 188.376C422.96 187.034 426.238 185.67 429.533 184.285C431.465 185.973 433.353 187.713 435.247 189.478C432.041 190.644 428.855 191.789 425.689 192.913C423.699 191.365 421.701 189.86 419.694 188.376H419.7ZM409.364 192.61C412.576 191.315 415.838 189.965 419.087 188.631C421.085 190.105 423.072 191.609 425.049 193.143C421.897 194.263 418.717 195.412 415.601 196.494C413.526 195.168 411.442 193.888 409.358 192.61H409.364ZM399.047 196.67C402.276 195.398 405.466 194.169 408.734 192.857C410.807 194.125 412.874 195.404 414.936 196.72C411.754 197.824 408.643 198.849 405.494 199.915C403.344 198.809 401.191 197.742 399.041 196.67H399.047ZM388.926 200.652C392.045 199.454 395.241 198.166 398.398 196.925C400.534 197.99 402.673 199.05 404.804 200.149C401.721 201.193 398.605 202.274 395.558 203.28C393.342 202.384 391.131 201.525 388.92 200.652H388.926ZM378.797 204.461C381.949 203.278 385.054 202.146 388.244 200.922C390.438 201.786 392.633 202.639 394.824 203.528C391.708 204.555 388.666 205.505 385.584 206.496C383.315 205.803 381.054 205.14 378.791 204.461H378.797ZM368.825 208.157C371.877 207.042 374.948 205.903 378.038 204.742C380.279 205.413 382.517 206.072 384.761 206.757C381.725 207.726 378.719 208.689 375.728 209.623C373.415 209.124 371.121 208.649 368.819 208.157H368.825ZM359.03 211.728C361.986 210.674 364.994 209.561 367.983 208.469C370.257 208.952 372.523 209.426 374.803 209.917C371.844 210.838 368.886 211.762 365.971 212.649L359.03 211.728ZM349.196 215.139C352.141 214.119 355.053 213.142 358.028 212.074C360.302 212.375 362.562 212.673 364.845 212.978C361.914 213.863 359.049 214.698 356.137 215.549C353.811 215.415 351.506 215.277 349.19 215.139H349.196ZM339.751 218.419C342.478 217.498 345.271 216.495 348.031 215.543C350.289 215.677 352.527 215.814 354.793 215.942C352.097 216.741 349.339 217.58 346.671 218.339C344.349 218.377 342.048 218.397 339.746 218.419H339.751ZM330.268 221.536C332.975 220.648 335.633 219.819 338.371 218.898C340.549 218.878 342.707 218.868 344.896 218.844C342.18 219.613 339.544 220.3 336.859 221.041C334.645 221.214 332.446 221.379 330.262 221.536H330.268ZM321.204 224.464C323.596 223.704 325.996 222.929 328.405 222.139C330.4 221.996 332.371 221.87 334.378 221.718C332.09 222.343 329.777 222.99 327.511 223.593C325.41 223.889 323.291 224.182 321.204 224.464ZM313.338 226.984C315.132 226.429 316.981 225.814 318.786 225.243C320.475 225.023 322.137 224.826 323.834 224.596C321.867 225.111 319.97 225.557 318.016 226.056C316.46 226.359 314.878 226.689 313.338 226.98V226.984ZM308.279 228.49C308.555 228.406 308.831 228.331 309.107 228.247L309.659 228.151C309.19 228.259 308.732 228.376 308.279 228.486V228.49ZM456.46 162.92C459.924 161.198 463.36 159.509 466.876 157.727C468.551 160.222 470.254 162.66 471.872 165.277C468.471 166.824 465.095 168.344 461.742 169.836C460.023 167.438 458.229 165.207 456.46 162.916V162.92ZM445.486 168.296C448.931 166.611 452.353 164.953 455.828 163.23C457.591 165.512 459.385 167.731 461.102 170.124C457.696 171.638 454.354 173.074 450.979 174.553C449.182 172.387 447.327 170.357 445.486 168.292V168.296ZM434.664 173.601C438.015 172.003 441.47 170.262 444.876 168.608C446.712 170.663 448.564 172.682 450.36 174.835C447.023 176.295 443.648 177.801 440.353 179.213C438.479 177.274 436.569 175.44 434.664 173.597V173.601ZM423.826 178.67C427.248 177.058 430.588 175.548 434.054 173.888C435.956 175.726 437.866 177.553 439.734 179.48C436.356 180.928 433.072 182.264 429.729 183.674C427.778 181.947 425.805 180.299 423.826 178.666V178.67ZM413.142 183.662C416.476 182.123 419.849 180.537 423.221 178.951C425.198 180.579 427.168 182.214 429.117 183.916C425.805 185.303 422.509 186.674 419.23 188.028C417.219 186.537 415.19 185.08 413.142 183.658V183.662ZM402.552 188.515C405.864 187.018 409.195 185.486 412.543 183.942C414.576 185.36 416.6 186.807 418.615 188.282C415.339 189.628 412.06 190.98 408.825 192.276C406.742 191 404.652 189.734 402.552 188.515ZM391.995 193.201C395.307 191.733 398.586 190.301 401.931 188.787C404.026 190.005 406.112 191.258 408.191 192.53C404.903 193.852 401.685 195.092 398.434 196.37C396.295 195.296 394.148 194.223 391.995 193.197V193.201ZM381.642 197.794C384.841 196.396 388.131 194.91 391.368 193.476C393.516 194.497 395.652 195.559 397.791 196.624C394.609 197.874 391.382 199.176 388.239 200.384C386.039 199.512 383.842 198.627 381.642 197.792V197.794ZM371.245 202.202C374.499 200.82 377.693 199.512 380.988 198.084C383.18 198.915 385.368 199.787 387.554 200.652C384.325 201.892 381.187 203.029 377.994 204.225C375.744 203.544 373.492 202.853 371.245 202.2V202.202ZM361.014 206.49C364.169 205.182 367.362 203.842 370.542 202.495C372.774 203.143 375.013 203.828 377.248 204.493C374.124 205.661 371.005 206.823 367.917 207.952C365.601 207.472 363.297 206.975 361.014 206.49ZM350.946 210.644C354.012 209.402 357.134 208.099 360.239 206.815C362.51 207.287 364.795 207.78 367.075 208.265C364.017 209.382 360.959 210.496 357.934 211.57L350.946 210.644ZM340.847 214.638C343.911 213.44 346.935 212.264 350.035 211.011C352.326 211.313 354.633 211.61 356.935 211.926C353.899 213.004 350.91 214.021 347.907 215.062L340.847 214.638ZM331.11 218.473C333.966 217.374 336.906 216.184 339.795 215.046C342.094 215.187 344.416 215.323 346.734 215.461C343.897 216.44 340.999 217.482 338.178 218.425C335.819 218.447 333.463 218.463 331.11 218.473ZM321.339 222.141C324.201 221.071 327.008 220.06 329.895 218.946C332.175 218.946 334.471 218.918 336.77 218.9C333.867 219.871 331.063 220.733 328.192 221.67C325.905 221.835 323.621 221.994 321.339 222.145V222.141ZM311.92 225.616C314.521 224.667 317.139 223.702 319.772 222.721C321.952 222.579 324.149 222.425 326.346 222.271C323.746 223.114 321.127 223.975 318.555 224.786C316.339 225.069 314.128 225.348 311.92 225.62V225.616ZM303.231 228.792C305.439 228.007 307.727 227.148 309.963 226.339C312.013 226.088 314.078 225.826 316.14 225.566C313.68 226.335 311.268 227.054 308.834 227.797L303.231 228.792ZM294.706 231.71C296.566 231.069 298.39 230.466 300.264 229.808C301.763 229.545 303.27 229.271 304.771 229.01C302.792 229.609 300.816 230.196 298.857 230.771C297.46 231.101 296.097 231.392 294.706 231.714V231.71ZM289.243 233.579L290.372 233.192L291.83 232.862C290.96 233.116 290.113 233.337 289.255 233.583L289.243 233.579ZM162.265 114.703C164.222 113.716 166.179 112.706 168.138 111.743C282.537 66.8693 399.532 57.976 466.592 157.3C463.07 159.079 459.617 160.777 456.142 162.503C385.542 71.4088 272.173 76.4396 162.265 114.703ZM151.225 120.365C153.59 119.127 155.956 117.894 158.326 116.684C269.214 77.2325 384.168 70.9994 455.499 162.818C452.014 164.546 448.58 166.213 445.125 167.903C370.048 84.0308 258.067 86.9905 151.233 120.365H151.225ZM140.538 126.035C143.193 124.601 145.86 123.201 148.52 121.799C255.944 87.6736 368.913 83.9549 444.506 168.201C441.095 169.868 437.623 171.61 434.261 173.221C354.76 96.7027 244.267 97.5814 140.547 126.035H140.538ZM129.948 131.876C132.747 130.319 135.54 128.735 138.347 127.207C242.478 98.1965 353.72 96.7426 433.649 173.509C430.171 175.173 426.815 176.692 423.373 178.302C339.486 109.351 230.511 108.3 129.957 131.876H129.948ZM119.267 137.894C122.292 136.163 125.328 134.451 128.375 132.759C229.161 108.819 338.592 109.516 422.783 178.592C419.396 180.189 416.004 181.787 412.656 183.325C324.323 121.913 216.769 119.071 119.275 137.894H119.267ZM108.619 144.069C111.725 142.242 114.843 140.434 117.973 138.645C215.613 119.556 323.492 122.138 412.046 183.604C408.674 185.158 405.321 186.689 401.989 188.198C309.267 134.411 203.093 129.903 108.627 144.069H108.619ZM97.996 150.418C101.151 148.517 104.303 146.601 107.477 144.73C202.034 130.351 308.456 134.666 401.376 188.468C398.006 189.989 394.702 191.433 391.374 192.909C294.292 146.831 189.473 140.802 98.0043 150.418H97.996ZM87.232 156.975C90.4833 154.969 93.7493 152.978 97.03 151.001C188.534 141.239 293.51 147.123 390.745 193.191C387.485 194.633 384.168 196.145 380.949 197.541C279.459 159.143 175.836 151.756 87.2403 156.975H87.232ZM76.3936 163.735C79.7056 161.645 83.0378 159.566 86.3903 157.5C174.986 152.181 278.692 159.465 380.295 197.83C376.964 199.272 373.746 200.582 370.456 201.978C264.608 171.34 162.155 162.778 76.4019 163.735H76.3936ZM65.4972 170.725C68.8616 168.552 72.2232 166.369 75.6208 164.218C161.332 163.194 263.819 171.691 369.736 202.282C366.518 203.642 363.302 205 360.125 206.316C249.914 183.449 148.52 173.874 65.5054 170.723L65.4972 170.725ZM54.4821 177.915C57.9045 175.651 61.3471 173.402 64.8099 171.168C147.75 174.286 249.122 183.82 359.344 206.646C356.179 207.954 353.016 209.258 349.889 210.52C235.308 195.434 134.858 185.022 54.4904 177.911L54.4821 177.915ZM43.3593 185.304C46.8259 182.971 50.3393 180.649 53.8473 178.33C134.108 185.422 234.461 195.813 348.975 210.883C345.823 212.154 342.735 213.35 339.621 214.576C220.727 207.277 121.149 196.216 43.3676 185.304H43.3593ZM32.1952 192.909C35.6912 190.503 39.2212 188.098 42.7853 185.693C120.44 196.6 219.863 207.662 338.598 214.97C335.644 216.13 332.628 217.366 329.708 218.479C206.408 218.996 107.523 207.474 32.1952 192.909ZM20.9179 200.74C24.47 198.256 28.0304 195.767 31.6432 193.285C106.82 207.848 205.492 219.393 328.496 218.964C325.46 220.124 322.543 221.161 319.543 222.267C192.02 230.557 93.8284 218.766 20.9179 200.748V200.74ZM9.5523 208.771C13.1348 206.217 16.7513 203.66 20.4018 201.101C93.1191 219.108 190.969 230.939 317.975 222.838C315.215 223.863 312.438 224.901 309.695 225.89C177.864 241.987 80.1996 230.098 9.5523 208.779V208.771ZM22.941 191.571C19.3889 193.906 15.8892 196.242 12.4006 198.577C10.0187 197.956 7.68655 197.325 5.36541 196.69C8.82367 194.493 12.2902 192.296 15.8175 190.099C18.1579 190.602 20.5324 191.096 22.941 191.579V191.571ZM33.934 184.437C30.438 186.689 26.9623 188.944 23.5068 191.204C21.1084 190.722 18.7486 190.235 16.4053 189.748C19.8167 187.628 23.2593 185.512 26.7332 183.401C29.104 183.754 31.519 184.1 33.934 184.445V184.437ZM44.8166 177.531C41.3722 179.698 37.9332 181.867 34.5384 184.048C32.129 183.704 29.7278 183.359 27.3625 183.015C30.7324 180.968 34.152 178.937 37.5744 176.904L44.8166 177.531ZM55.564 170.839C52.1802 172.921 48.8186 175.013 45.479 177.114C43.064 176.914 40.649 176.692 38.2699 176.489C41.5819 174.522 44.9224 172.565 48.2914 170.617C50.7037 170.693 53.1214 170.767 55.564 170.845V170.839ZM66.1513 164.366C62.8393 166.363 59.566 168.38 56.2899 170.393C53.8703 170.313 51.4627 170.238 49.067 170.168C52.3182 168.286 55.5723 166.407 58.8622 164.546C61.2799 164.486 63.7004 164.422 66.1513 164.372V164.366ZM76.711 158.115C73.4542 160.03 70.1891 161.947 66.9627 163.885C64.5395 163.933 62.141 163.992 59.7426 164.052C62.9331 162.254 66.1412 160.464 69.3667 158.684C71.8037 158.492 74.2518 158.297 76.711 158.121V158.115ZM87.0554 152.123C83.898 153.934 80.7516 155.755 77.6163 157.586C75.1737 157.757 72.7642 157.951 70.3492 158.143C73.4818 156.419 76.6503 154.726 79.8132 153.028C82.2144 152.721 84.6285 152.419 87.0554 152.123ZM97.1431 146.376C94.1237 148.063 91.1319 149.791 88.1346 151.504C85.7361 151.788 83.3543 152.089 80.9779 152.397C84.0139 150.774 87.0591 149.164 90.1135 147.566C92.4429 147.159 94.7972 146.775 97.1431 146.376ZM107.22 140.848C104.289 142.445 101.355 144.043 98.4403 145.665C96.1357 146.044 93.8284 146.428 91.5404 146.831C94.4273 145.331 97.317 143.835 100.223 142.357C102.544 141.844 104.888 141.351 107.22 140.854V140.848ZM117.032 135.591C114.255 137.063 111.481 138.539 108.719 140.037C106.483 140.506 104.239 140.957 102.017 141.449C104.777 140.051 107.557 138.717 110.33 137.355C112.566 136.754 114.8 136.166 117.032 135.591ZM126.501 130.618C123.976 131.92 121.461 133.262 118.944 134.589C116.874 135.114 114.804 135.627 112.737 136.17C115.206 134.964 117.682 133.772 120.164 132.593C122.276 131.928 124.39 131.247 126.509 130.61L126.501 130.618ZM135.523 126.073C133.315 127.173 131.107 128.254 128.924 129.374C127.173 129.892 125.425 130.416 123.68 130.948C125.75 129.975 127.82 128.999 129.89 128.042C131.756 127.381 133.633 126.716 135.523 126.073ZM142.821 122.422C141.595 123.021 140.376 123.652 139.153 124.257C137.856 124.691 136.564 125.146 135.272 125.595C136.843 124.884 138.421 124.207 139.992 123.506C140.93 123.139 141.871 122.783 142.815 122.422H142.821ZM478.388 151.263C417.735 47.9464 304.542 55.1441 190.522 101.1C311.097 46.1968 430.958 32.5763 488.986 145.836C485.412 147.686 481.915 149.451 478.382 151.263H478.388ZM483.356 160.012C481.83 157.142 480.226 154.438 478.634 151.71C482.155 149.913 485.644 148.141 489.199 146.3C490.695 149.24 492.182 152.207 493.615 155.313C490.151 156.925 486.784 158.432 483.359 160.012H483.356ZM487.852 169.279C486.453 166.301 485.092 163.27 483.607 160.456C487.024 158.88 490.38 157.376 493.819 155.77C495.199 158.816 496.477 162.049 497.766 165.273C494.443 166.635 491.158 167.945 487.855 169.279H487.852ZM492.268 178.887C490.918 175.726 489.48 172.748 488.059 169.732C491.371 168.402 494.63 167.098 497.953 165.738C499.259 169.001 500.606 172.185 501.817 175.61C498.643 176.714 495.447 177.813 492.276 178.887H492.268ZM496.209 188.985C494.981 185.723 493.756 182.448 492.447 179.347C495.61 178.275 498.789 177.187 501.983 176.083C503.162 179.428 504.235 182.989 505.325 186.51C502.295 187.335 499.234 188.182 496.217 188.985H496.209ZM499.993 199.462C498.834 196.037 497.622 192.711 496.389 189.44C499.394 188.641 502.461 187.794 505.474 186.974C506.578 190.527 507.682 194.095 508.69 197.816C505.806 198.359 502.877 198.937 500.001 199.462H499.993ZM503.46 210.344C502.391 206.793 501.287 203.319 500.148 199.921C503.01 199.398 505.944 198.823 508.817 198.281C509.816 201.966 510.77 205.738 511.679 209.597C508.949 209.843 506.189 210.109 503.468 210.344H503.46ZM506.609 221.646C505.637 217.975 504.657 214.319 503.606 210.806C506.316 210.57 509.065 210.304 511.789 210.059C512.689 213.883 513.531 217.824 514.342 221.822C511.773 221.762 509.184 221.708 506.617 221.646H506.609ZM509.606 233.377C508.701 229.521 507.71 225.828 506.73 222.119C509.286 222.181 511.867 222.235 514.433 222.293C515.245 226.313 516.073 230.31 516.801 234.494L509.606 233.377ZM512.14 245.492C511.356 241.588 510.602 237.619 509.736 233.879L516.895 234.991C517.594 239.055 518.181 243.329 518.786 247.573C516.578 246.876 514.362 246.177 512.148 245.492H512.14ZM514.654 258.108C513.917 253.956 513.059 250.046 512.247 246.039C514.455 246.722 516.663 247.417 518.871 248.106C519.492 252.442 520.18 256.65 520.718 261.144C518.699 260.124 516.681 259.112 514.662 258.108H514.654ZM516.586 270.972C515.987 266.863 515.435 262.665 514.751 258.727C516.76 259.727 518.768 260.734 520.776 261.749C521.273 266.005 521.631 270.524 522.032 274.962C520.219 273.617 518.405 272.287 516.589 270.972H516.586ZM518.518 284.42C517.966 280.081 517.331 275.923 516.71 271.723C518.513 273.037 520.315 274.343 522.112 275.681C522.526 280.212 522.992 284.646 523.323 289.335C521.725 287.658 520.113 286.052 518.51 284.42H518.518ZM519.951 298.039C519.528 293.761 519.123 289.451 518.615 285.335C520.053 286.797 521.502 288.233 522.923 289.745L522.94 289.761L522.964 289.779L523.362 290.064C523.663 294.458 523.864 299.034 524.079 303.585L523.475 302.962C522.31 301.276 521.121 299.673 519.942 298.039H519.951ZM521.289 312.279C520.93 307.845 520.505 303.539 520.078 299.239C521.021 300.547 521.974 301.836 522.901 303.186V303.2L522.92 303.218C523.321 303.628 523.72 304.038 524.115 304.448C524.336 309.029 524.59 313.545 524.736 318.258L523.483 316.461C522.766 315.025 522.018 313.661 521.281 312.279H521.289ZM522.219 326.606C521.965 322.286 521.714 317.964 521.391 313.784C521.896 314.725 522.404 315.656 522.893 316.632V316.646V316.658C523.516 317.549 524.137 318.439 524.753 319.329C524.88 323.75 524.919 328.332 524.963 332.909L523.494 329.955C523.08 328.807 522.644 327.717 522.211 326.606H522.219ZM522.989 341.535C522.815 337.195 522.597 332.933 522.354 328.721C522.531 329.17 522.711 329.616 522.879 330.083V330.093C523.585 331.511 524.287 332.925 524.985 334.335C525.026 338.895 525.112 343.376 525.095 348.043C524.565 346.51 524.033 344.971 523.5 343.428C523.334 342.785 523.158 342.162 522.981 341.535H522.989ZM523.409 356.35C523.309 352.229 523.216 348.099 523.064 344.087C523.735 346.031 524.404 347.968 525.07 349.899C525.037 354.075 524.932 358.391 524.827 362.703L523.516 356.939C523.475 356.737 523.434 356.549 523.401 356.35H523.409ZM523.649 371.408C523.649 367.462 523.585 363.597 523.505 359.785L524.778 365.377C524.673 369.583 524.648 373.643 524.502 377.905L523.649 371.408ZM523.58 385.025C523.58 382.075 523.635 379.053 523.624 376.135L524.333 381.484C524.22 384.425 524.057 387.475 523.884 390.511L523.58 385.025ZM523.519 397.383C523.519 396.842 523.519 396.344 523.519 395.807L523.569 396.696C523.547 397.115 523.527 397.527 523.505 397.948L523.519 397.383ZM523 371.432C523 371.869 523 372.337 523 372.78C522.967 372.051 522.931 371.338 522.898 370.613L523 371.432ZM522.757 356.382C522.835 359.577 522.978 362.659 523.033 365.914C522.84 363.935 522.6 362.051 522.399 360.09C522.246 357.202 522.073 354.353 521.88 351.542C522.164 353.144 522.473 354.722 522.749 356.382H522.757ZM522.341 341.575C522.481 345.008 522.553 348.579 522.636 352.126C522.222 349.689 521.767 347.332 521.325 344.936C521.049 341.541 520.773 338.092 520.48 334.736C521.093 337.001 521.736 339.242 522.332 341.575H522.341ZM521.565 326.664C521.811 330.708 522.073 334.717 522.261 338.863C521.593 336.28 520.881 333.77 520.188 331.247C519.813 327.373 519.36 323.622 518.949 319.846C519.818 322.105 520.704 324.349 521.557 326.664H521.565ZM520.638 312.364C520.955 316.321 521.19 320.449 521.427 324.547C520.511 322.089 519.572 319.676 518.631 317.265C518.19 313.439 517.745 309.62 517.251 305.916C518.372 308.055 519.512 310.186 520.63 312.364H520.638ZM519.299 298.153C519.727 302.359 520.177 306.527 520.541 310.857C519.382 308.616 518.213 306.396 517.033 304.198C516.465 300.182 515.816 296.325 515.192 292.415C516.561 294.314 517.927 296.228 519.291 298.159L519.299 298.153ZM517.87 284.572C518.369 288.566 518.755 292.79 519.172 296.954C517.776 294.987 516.379 293.024 514.974 291.087C514.364 287.242 513.763 283.378 513.081 279.677C514.676 281.291 516.269 282.933 517.861 284.578L517.87 284.572ZM515.938 271.167C516.556 275.311 517.21 279.382 517.759 283.659C516.142 282.002 514.53 280.328 512.904 278.693C512.159 274.75 511.309 271.01 510.503 267.183C512.325 268.495 514.133 269.841 515.943 271.167H515.938ZM514.019 258.36C514.696 262.232 515.234 266.376 515.824 270.414C513.995 269.076 512.17 267.71 510.335 266.39C509.559 262.675 508.82 258.891 507.969 255.328C509.993 256.321 512.007 257.353 514.025 258.36H514.019ZM511.516 245.81C512.319 249.76 513.172 253.636 513.895 257.727C511.869 256.716 509.844 255.681 507.823 254.687C506.91 250.928 505.891 247.393 504.906 243.757C507.106 244.436 509.314 245.125 511.522 245.81H511.516ZM508.999 233.765C509.863 237.473 510.622 241.392 511.406 245.26C509.198 244.573 506.965 243.88 504.749 243.203C503.799 239.652 502.869 236.066 501.845 232.66L508.999 233.765ZM506.018 222.103C506.995 225.774 507.969 229.445 508.872 233.262L501.679 232.153C500.611 228.642 499.471 225.293 498.332 221.91C500.891 221.975 503.455 222.04 506.024 222.103H506.018ZM502.897 210.871C503.945 214.363 504.928 217.983 505.897 221.63C503.321 221.569 500.745 221.502 498.169 221.43C497.048 218.081 495.914 214.754 494.724 211.545C497.451 211.327 500.161 211.109 502.902 210.871H502.897ZM499.447 200.045C500.587 203.42 501.691 206.875 502.759 210.41C499.999 210.65 497.283 210.868 494.556 211.089C493.342 207.842 492.072 204.686 490.802 201.573C493.678 201.068 496.529 200.576 499.452 200.045H499.447ZM495.696 189.62C496.93 192.877 498.141 196.177 499.3 199.586C496.378 200.119 493.504 200.612 490.615 201.119C489.323 197.996 487.99 194.96 486.635 191.974C489.657 191.192 492.665 190.429 495.701 189.62H495.696ZM491.771 179.574C493.077 182.658 494.291 185.923 495.519 189.161C492.461 189.973 489.447 190.74 486.425 191.525C485.07 188.543 483.704 185.578 482.285 182.738C485.451 181.685 488.592 180.653 491.777 179.574H491.771ZM487.385 170.002C488.804 172.998 490.245 175.965 491.592 179.115C488.396 180.197 485.244 181.232 482.07 182.292C480.612 179.408 479.081 176.68 477.563 173.926C480.836 172.626 484.109 171.328 487.391 170.002H487.385ZM482.936 160.755C484.407 163.551 485.779 166.573 487.178 169.543C483.867 170.873 480.601 172.175 477.323 173.479C475.829 170.759 474.367 167.975 472.805 165.402C476.166 163.877 479.543 162.328 482.936 160.755ZM477.968 152.038C479.558 154.754 481.156 157.454 482.677 160.312C479.286 161.876 475.902 163.429 472.526 164.969C470.903 162.339 469.192 159.9 467.511 157.392C470.977 155.648 474.491 153.831 477.974 152.048L477.968 152.038ZM178.433 106.758C296.196 56.566 415.021 45.0465 477.72 151.6C474.226 153.398 470.704 155.213 467.232 156.973C401.224 58.9127 286.729 65.9307 173.94 108.893C175.436 108.172 176.923 107.473 178.433 106.758ZM154.727 117.381C155.911 116.826 157.093 116.245 158.277 115.698C159.657 115.128 161.037 114.527 162.439 113.968C160.929 114.727 159.419 115.484 157.912 116.249C156.85 116.618 155.79 116.996 154.727 117.381ZM142.669 123.123C144.935 122.017 147.209 120.948 149.481 119.87C151.029 119.292 152.58 118.731 154.134 118.176C152.13 119.216 150.129 120.307 148.126 121.371C146.307 121.949 144.485 122.526 142.669 123.123ZM131.869 128.527C134.408 127.242 136.952 125.97 139.501 124.709C141.468 124.052 143.445 123.43 145.418 122.801C142.934 124.121 140.45 125.428 137.966 126.778C135.931 127.357 133.899 127.94 131.869 128.527ZM121.243 134.007C123.934 132.609 126.617 131.181 129.316 129.813C131.524 129.162 133.732 128.537 135.94 127.91C133.285 129.362 130.636 130.848 127.991 132.328C125.734 132.863 123.493 133.446 121.243 134.007ZM110.598 139.633C113.499 138.07 116.419 136.542 119.333 135.01C121.646 134.425 123.962 133.84 126.28 133.27C123.382 134.9 120.493 136.546 117.611 138.207C115.268 138.667 112.933 139.15 110.598 139.633ZM100.11 145.387C103.096 143.732 106.091 142.089 109.094 140.458C111.501 139.953 113.899 139.44 116.317 138.958C113.245 140.728 110.165 142.493 107.112 144.295C104.772 144.647 102.438 145.008 100.11 145.377V145.387ZM89.5587 151.331C92.6361 149.579 95.7135 147.824 98.8129 146.1C101.205 145.701 103.597 145.318 105.989 144.952C102.867 146.797 99.7762 148.688 96.6767 150.562C94.3004 150.811 91.9157 151.057 89.5587 151.331ZM78.8251 157.508C82.0267 155.638 85.2559 153.789 88.4851 151.946C90.8807 151.662 93.2985 151.402 95.7162 151.147C92.4907 153.1 89.2754 155.069 86.0701 157.052C83.6358 157.194 81.2236 157.344 78.8251 157.508ZM68.075 163.873C71.3428 161.915 74.629 159.97 77.9337 158.037C80.3459 157.869 82.7857 157.721 85.2255 157.574C81.9136 159.625 78.6016 161.678 75.3172 163.755C72.8884 163.785 70.4789 163.829 68.075 163.873ZM57.2862 170.433C60.5982 168.4 63.9102 166.365 67.2636 164.354C69.6813 164.306 72.1119 164.266 74.5554 164.234C71.1938 166.367 67.868 168.53 64.5367 170.683C62.1079 170.593 59.6957 170.513 57.2862 170.433ZM46.376 177.198C49.7487 175.083 53.1426 172.977 56.5576 170.879C58.9808 170.959 61.3958 171.036 63.8495 171.126C60.4142 173.351 56.9992 175.587 53.6044 177.833C51.1775 177.617 48.768 177.405 46.376 177.198ZM35.3554 184.172C38.775 181.975 42.2553 179.794 45.7164 177.615L52.9724 178.25C49.4837 180.559 45.9951 182.87 42.5507 185.19C40.1357 184.851 37.7317 184.511 35.3582 184.172H35.3554ZM24.2685 191.361C27.7351 189.091 31.2311 186.823 34.7565 184.557C37.1393 184.897 39.545 185.237 41.9738 185.58C38.4355 187.966 34.9221 190.362 31.4335 192.769C29.0267 192.31 26.6228 191.841 24.2713 191.369L24.2685 191.361ZM13.1127 198.751C16.6151 196.408 20.1313 194.062 23.7027 191.721C26.0598 192.194 28.4665 192.66 30.8787 193.119C27.2907 195.591 23.7414 198.07 20.2086 200.544C17.8185 199.968 15.4541 199.375 13.1154 198.767L13.1127 198.751ZM1.86023 206.37C5.39853 203.955 8.97271 201.539 12.5828 199.122C14.9251 199.732 17.2959 200.335 19.6952 200.93C16.0557 203.482 12.4503 206.033 8.87887 208.583C6.49976 207.858 4.18413 207.113 1.86023 206.37ZM0.00827995 258.725C63.7225 278.697 153.968 278.285 281.863 236.107C287.54 234.554 293.289 232.924 299.11 231.218C305.409 229.737 311.806 228.145 318.292 226.487C324.406 225.303 330.572 224.065 336.837 222.737C342.561 221.902 348.349 221.012 354.202 220.066C360.274 219.519 366.411 218.929 372.612 218.297C378.097 218.156 383.627 217.989 389.202 217.798C394.722 218.073 400.287 218.34 405.897 218.596C411.2 219.338 416.527 220.088 421.877 220.845C426.869 222.081 431.875 223.346 436.894 224.64C441.739 226.473 446.584 228.357 451.428 230.292C455.82 232.672 460.199 235.124 464.563 237.647C468.815 240.829 473.041 244.108 477.24 247.483C480.859 251.17 484.436 254.972 487.971 258.891C491.553 263.83 495.067 268.937 498.514 274.211C501.13 279.204 503.667 284.396 506.151 289.681C508.762 296.671 511.246 303.927 513.636 311.382C515.228 317.837 516.716 324.505 518.121 331.335C519.501 340.596 520.674 350.256 521.736 360.13C522.219 367.851 522.611 375.744 522.86 383.908L522.923 385.031C522.923 389.119 522.948 393.131 522.86 397.367L522.708 413.186C521.469 432.413 520.246 451.174 519.062 469.352C517.174 498.367 515.397 525.907 513.732 551.972H514.384C516.04 525.876 517.816 498.343 519.713 469.374C520.65 454.995 521.609 440.225 522.592 425.065L522.382 446.105C522.001 483.918 521.692 519.207 521.455 551.972H522.103C522.298 519.163 522.607 483.875 523.031 446.107C523.139 435.349 523.248 424.382 523.356 413.206L523.511 410.848C523.685 408.112 523.762 405.559 523.908 402.879C524.534 414.336 525.148 425.565 525.749 436.567C528.023 478.217 530.121 516.611 532.288 551.972H532.936C530.77 516.609 528.672 478.209 526.398 436.537C525.691 423.565 524.964 410.277 524.217 396.674C524.424 392.764 524.651 388.823 524.8 385.025C527.317 404.04 529.734 422.421 532.05 440.168C537.349 480.616 542.226 517.823 547.015 551.962H547.666C542.878 517.811 538.006 480.592 532.696 440.122C530.229 421.27 527.653 401.711 524.968 381.446C525.142 376.89 525.244 372.441 525.363 368.009C532.274 398.481 538.714 427.317 544.683 454.515C552.458 489.589 559.653 522.037 566.616 551.96H567.276C560.304 522.021 553.106 489.547 545.323 454.441C539.111 426.416 532.47 396.712 525.399 365.329C525.509 360.735 525.625 356.124 525.658 351.67C541.001 396.201 554.489 437.36 566.909 475.206C575.862 502.519 584.25 528.092 592.356 551.984H593.029C584.909 528.064 576.511 502.455 567.544 475.094C554.98 436.771 541.305 395.052 525.724 349.845C525.752 345.052 525.724 340.368 525.672 335.711C554.906 394.795 578.912 448.458 600.39 496.465C609.087 515.904 617.37 534.411 625.415 551.986H626.099C618.032 534.375 609.73 515.816 601.011 496.326C579.379 447.971 555.176 393.872 525.664 334.277C525.62 329.568 525.581 324.845 525.451 320.297C574.733 391.286 611.864 456.133 644.409 512.974C652.115 526.435 659.598 539.438 666.859 551.984H667.565C660.239 539.39 652.722 526.326 645.016 512.792C612.338 455.716 575.037 390.567 525.418 319.223C525.272 314.443 525.051 309.802 524.827 305.169C600.067 382.48 651.326 456.854 695.908 521.544C703.084 531.95 710.107 542.097 716.977 551.984H717.706C710.758 542.042 703.686 531.826 696.49 521.334C651.778 456.471 600.376 381.869 524.781 304.306C524.56 299.683 524.361 295.019 524.052 290.566C629.663 366.625 694.373 449.415 750.923 521.759C758.98 532.067 766.9 542.142 774.683 551.984H775.434C767.553 542.078 759.571 531.926 751.488 521.528C694.84 449.043 629.994 366.076 524.027 289.873C523.693 285.205 523.26 280.726 522.846 276.212L522.97 276.302L522.995 276.322L523.025 276.336C661.91 343.278 738.508 434.442 806.23 515.049C816.831 527.669 827.206 540.013 837.592 551.984H838.359C827.915 539.939 817.46 527.509 806.785 514.803C739.033 434.164 662.404 342.955 523.392 275.956C523.182 275.799 522.97 275.647 522.757 275.493C522.352 270.998 521.99 266.416 521.488 262.112C521.99 262.362 522.495 262.61 522.995 262.869L523.028 262.885L523.061 262.895C696.093 313.756 782.577 413.782 860.055 503.383C874.487 520.076 888.607 536.406 902.918 551.992H903.699C889.314 536.334 875.119 519.918 860.607 503.136C783.085 413.476 696.548 313.389 523.337 262.468C522.702 262.14 522.065 261.827 521.427 261.511C520.875 256.982 520.213 252.706 519.589 248.33C520.743 248.689 521.894 249.045 523.053 249.414H523.083H523.122C731.053 278.671 825.867 388.829 911.631 488.487C930.573 510.493 949.076 531.991 968.26 551.996H969.052C949.796 531.915 931.227 510.332 912.183 488.229C826.347 388.502 731.456 278.261 523.274 248.971C522.012 248.572 520.759 248.172 519.503 247.793C518.896 243.525 518.325 239.189 517.621 235.103C519.448 235.386 521.27 235.668 523.105 235.956H523.169C766.45 239.171 868.313 360.949 960.902 471.629C984.505 499.847 1007.51 527.349 1032.1 551.978H1032.9C1008.22 527.289 985.151 499.701 961.457 471.385C868.799 360.608 766.845 238.718 523.232 235.486L517.541 234.602C516.804 230.386 515.976 226.353 515.156 222.303C517.825 222.365 520.489 222.429 523.177 222.485H523.229C802.206 196.165 910.06 331.162 1007.99 453.736C1036.05 488.866 1063.31 522.975 1093.55 551.986H1094.37C1064.04 522.936 1036.71 488.732 1008.57 453.499C910.541 330.804 802.576 195.667 523.188 222.03C520.467 221.974 517.776 221.91 515.076 221.848C514.248 217.832 513.42 213.843 512.529 210.005C516.092 209.683 519.641 209.372 523.243 209.028H523.263H523.282C838.287 150.312 951.25 300.178 1053.17 435.397C1085.32 478.05 1116.37 519.247 1152.33 552H1153.15C1117.1 519.231 1085.97 477.934 1053.74 435.167C951.703 299.798 838.615 149.775 523.138 208.565C519.531 208.91 515.976 209.222 512.408 209.543C511.488 205.667 510.533 201.864 509.526 198.16C514.097 197.303 518.634 196.458 523.279 195.551H523.296C874.7 102.053 991.985 268.475 1096.65 416.989C1132.44 467.772 1166.75 516.459 1208.45 551.982H1209.3C1167.49 516.477 1133.1 467.678 1097.23 416.775C992.443 268.086 875.02 101.47 523.089 195.092C518.479 195.997 513.948 196.836 509.396 197.688C508.375 193.956 507.29 190.349 506.184 186.784C511.855 185.246 517.533 183.702 523.296 182.067H523.312C911.548 51.7649 1032.43 236.491 1138.69 398.861C1177.69 458.458 1214.73 515.049 1262.28 551.984H1263.18C1215.49 515.103 1178.37 458.396 1139.28 398.661C1032.89 236.093 911.857 51.1458 523.061 181.623C517.323 183.251 511.676 184.787 506.035 186.319C504.931 182.78 503.863 179.201 502.679 175.842C509.496 173.493 516.36 171.094 523.329 168.582H523.343C854.499 37.1318 1002.9 132.01 1102.76 263.822C1131.23 301.412 1155.76 342.002 1179.46 381.21C1221.35 450.525 1260.63 515.512 1314.48 551.984H1315.42C1261.4 515.636 1222.04 450.507 1180.04 381.028C1156.34 341.81 1131.81 301.206 1103.32 263.596C1003.3 131.567 854.67 36.5207 523.031 168.161C516.109 170.655 509.291 173.038 502.518 175.372C501.288 171.935 499.946 168.724 498.638 165.452C506.763 162.124 514.998 158.674 523.343 155.103C847.826 8.64447 1006.85 75.9104 1109.54 195.106C1153.53 246.177 1187.2 306.784 1219.09 364.206C1263.16 443.555 1303.86 516.826 1363.81 550.54C1364.7 551.037 1365.59 551.511 1366.48 551.99H1367.58C1366.46 551.391 1365.34 550.792 1364.23 550.169C1304.41 516.535 1263.75 443.321 1219.71 364.035C1187.8 306.593 1154.13 245.965 1110.1 194.86C1007.24 75.449 847.947 8.04736 523.025 154.706C514.73 158.261 506.543 161.689 498.461 164.991C497.172 161.762 495.895 158.506 494.517 155.455C503.97 151.039 513.611 146.404 523.367 141.63C850.492 -21.9358 1018.54 27.6134 1124.95 139.116C1181.84 198.727 1221.14 276.052 1257.71 347.994C1295.82 422.98 1330.97 492.126 1380 529.33V528.653C1331.31 491.439 1296.29 422.535 1258.32 347.824C1221.74 275.857 1182.43 198.505 1125.49 138.84C1018.88 27.1261 850.555 -22.5529 523.003 141.237C513.293 145.988 503.703 150.598 494.299 154.995C492.878 151.88 491.387 148.906 489.883 145.954C500.842 140.27 512.008 134.336 523.381 128.15C857.535 -53.5666 1034.21 -17.4802 1144.63 88.9198C1213.07 154.858 1256.1 247.805 1295.38 332.673C1322.93 392.188 1348.65 447.709 1380 487.219V486.27C1348.94 446.86 1323.38 391.655 1296 332.524C1256.7 247.621 1213.65 154.636 1145.16 88.6362C1034.51 -17.9715 857.566 -54.1597 522.989 127.78C511.677 133.931 500.565 139.838 489.654 145.501C429.517 27.9709 303.079 46.5304 178.088 106.285C171.361 109.157 164.645 112.143 157.94 115.242C151.818 117.759 145.711 120.369 139.617 123.073C132.993 125.647 126.402 128.317 119.844 131.086C113.678 133.349 107.547 135.702 101.451 138.145C94.9342 140.377 88.4676 142.684 82.0516 145.066C75.8637 147.005 69.7356 149.013 63.6673 151.089C57.2715 152.873 50.9557 154.728 44.72 156.653C38.4328 158.175 32.2145 159.745 26.1205 161.374C20.0099 162.587 14.0106 163.847 8.12263 165.155C5.38841 165.554 2.68178 165.966 0.00275998 166.389V166.87L1.58699 166.629L0.00827995 166.994V167.635C1.78571 167.495 3.57694 167.362 5.37093 167.236C3.56866 167.769 1.78295 168.306 0.00827995 168.846V169.343C2.56402 168.571 5.14001 167.804 7.73623 167.044C9.94422 166.886 12.1826 166.741 14.4264 166.597C11.7299 167.539 9.06655 168.494 6.42248 169.451C4.26417 169.451 2.13347 169.439 0.00827995 169.437V169.904C1.70291 169.904 3.4141 169.904 5.12805 169.918C3.41134 170.538 1.70475 171.162 0.00827995 171.789V172.321C2.18867 171.522 4.38285 170.723 6.59084 169.924C8.91751 169.924 11.2828 169.954 13.6592 169.976C10.6673 171.212 7.70127 172.455 4.76097 173.707L0.00827995 173.337V173.808L3.83086 174.116C2.5539 174.662 1.27971 175.205 0.00827995 175.746V176.295C1.64035 175.595 3.27702 174.894 4.91829 174.194C7.27256 174.394 9.65994 174.577 12.0611 174.775C8.88163 176.283 5.71317 177.793 2.59438 179.313L0.00827995 178.913V179.392L1.85195 179.678L0.00827995 180.579V181.152L2.74618 179.816C5.09217 180.175 7.46483 180.537 9.86418 180.9C6.5522 182.66 3.24022 184.421 0.00827995 186.189V186.788L0.110399 186.732C2.43431 187.255 4.79225 187.772 7.18424 188.282C4.77201 189.694 2.38003 191.108 0.00827995 192.524V193.149C2.63578 191.581 5.27433 190.013 7.95151 188.45C10.292 188.955 12.6435 189.448 15.0391 189.957C11.5367 192.138 8.09503 194.325 4.65609 196.506C3.09578 196.079 1.54651 195.649 0.00827995 195.218V195.705C1.36619 196.087 2.7333 196.467 4.10962 196.844C2.73514 197.724 1.36803 198.6 0.00827995 199.474V200.119C1.60355 199.095 3.2071 198.07 4.81893 197.045C7.1456 197.68 9.48054 198.317 11.8679 198.941C8.27259 201.349 4.71681 203.756 1.20059 206.16L0.00827995 205.775V206.29L0.689996 206.512L0.00827995 206.973V207.634L1.35239 206.717C3.6763 207.462 5.99744 208.211 8.38207 208.938C5.56873 210.945 2.77746 212.949 0.00827995 214.952V215.631C2.99458 213.47 6.01032 211.304 9.05551 209.134C79.4489 230.428 176.647 242.371 307.746 226.619C305.133 227.56 302.547 228.47 299.961 229.377C165.069 253.041 68.3869 241.658 0.00827995 217.674V218.207C67.9508 241.999 163.73 253.357 297.007 230.39C294.681 231.188 292.376 231.987 290.074 232.762C158.975 262.294 65.8256 254.132 0 230.585V231.149C65.1632 254.399 156.988 262.61 285.749 234.25C284.386 234.707 282.97 235.219 281.609 235.666C154.145 270.538 63.8633 266.228 0.00827995 244.192V244.791C61.9644 266.125 148.683 270.826 270.012 239.331C148.316 277.71 61.6801 277.476 0.00827995 258.09V258.725Z" fill="#1E3A8A"/>
</svg>
