<svg width="78" height="28" viewBox="0 0 78 28" fill="none" xmlns="http://www.w3.org/2000/svg">
<path d="M0.101232 21.5V2.3H17.7012V5.18H3.0079V10.46H14.8212V13.34H3.0079V21.5H0.101232ZM23.7454 21.5C23.1054 21.5 22.5276 21.34 22.0121 21.02C21.4965 20.7 21.0787 20.2822 20.7587 19.7667C20.4387 19.2511 20.2787 18.6733 20.2787 18.0333V0.966666H23.1587V17.9533C23.1587 18.1311 23.221 18.2911 23.3454 18.4333C23.4876 18.5578 23.6476 18.62 23.8254 18.62H26.6254V21.5H23.7454ZM30.0433 21.5V6.03333H32.9233V21.5H30.0433ZM30.0433 3.84667V0.966666H32.9233V3.84667H30.0433ZM36.6841 27.6333V6.03333H48.9508C49.5908 6.03333 50.1686 6.19333 50.6841 6.51333C51.2175 6.83333 51.6353 7.25111 51.9375 7.76667C52.2575 8.28222 52.4175 8.86 52.4175 9.5V18.0333C52.4175 18.6733 52.2575 19.2511 51.9375 19.7667C51.6353 20.2822 51.2175 20.7 50.6841 21.02C50.1686 21.34 49.5908 21.5 48.9508 21.5H39.5641V27.6333H36.6841ZM40.2308 18.62H48.8708C49.0486 18.62 49.1997 18.5578 49.3241 18.4333C49.4664 18.2911 49.5375 18.1311 49.5375 17.9533V9.58C49.5375 9.40222 49.4664 9.25111 49.3241 9.12667C49.1997 8.98444 49.0486 8.91333 48.8708 8.91333H40.2308C40.053 8.91333 39.893 8.98444 39.7508 9.12667C39.6264 9.25111 39.5641 9.40222 39.5641 9.58V17.9533C39.5641 18.1311 39.6264 18.2911 39.7508 18.4333C39.893 18.5578 40.053 18.62 40.2308 18.62ZM55.6402 21.5V6.03333H58.5202V21.5H55.6402ZM55.6402 3.84667V0.966666H58.5202V3.84667H55.6402ZM61.8073 21.5V20.9933L67.8606 13.6333L61.8073 6.54V6.03333H65.1673L69.7273 11.3933L74.3139 6.03333H77.6473V6.54L71.6206 13.6333L77.6739 20.9933V21.5H74.3139L69.7273 15.8733L65.1673 21.5H61.8073Z" fill="#1E293B"/>
</svg>
