<svg width="56" height="40" viewBox="0 0 56 40" fill="none" xmlns="http://www.w3.org/2000/svg">
<path d="M27.8576 31.4911C27.8453 32.5325 27.6352 33.8987 26.8258 35.1176C25.7913 36.6735 24.0061 37.6671 21.5192 38.0711C21.294 38.0915 15.5906 38.916 9.93288 33.4141C9.91265 33.3944 8.7864 32.4446 7.90718 30.9687C6.09182 27.9215 7.74932 23.9761 11.2171 23.2311C12.5122 22.9529 14.177 22.9119 16.2932 23.3577C14.3059 23.9569 11.4343 25.2467 11.0493 27.7567C11.0179 27.9286 10.3629 32.0178 15.6352 34.551L15.6612 34.5633C15.9233 34.6698 22.102 37.1306 25.3326 34.1512C25.5429 33.9943 26.9132 32.9434 27.8576 31.4911Z" fill="#0F172A"/>
<path d="M5.10229 30.5526C5.10229 30.5526 10.9782 41.3809 24.216 39.591C24.216 39.591 8.31052 42.7217 5.10229 30.5526Z" fill="#0F172A"/>
<path d="M52.1484 35.3823C48.7207 38.0302 47.4385 38.1234 46.0212 38.4054C44.7229 38.6637 43.3629 38.4503 42.2429 37.7447C40.837 36.859 40.3389 35.5907 40.1813 34.592C40.7259 35.2718 41.3305 35.9023 41.5161 36.092L41.5324 36.1083C43.8185 38.2416 48.1684 36.5082 48.3527 36.4332L48.3991 36.4114C51.6351 34.6684 51.6229 31.7872 51.6215 31.6657L51.616 31.6002C51.3718 30.0196 49.783 29.1175 48.4509 28.633C52.5687 27.9642 53.864 30.1248 53.9991 30.3759C54.9109 33.0485 52.1661 35.3673 52.1484 35.3823Z" fill="#0F172A"/>
<path d="M55.5546 33.5387C55.5546 33.5387 51.5155 40.982 42.4159 39.7516C42.4159 39.7516 53.3493 41.9036 55.5546 33.5387Z" fill="#0F172A"/>
<path d="M19.9754 8.6829C19.2096 7.60197 18.2379 6.62601 18.04 6.4322C15.2175 3.32989 9.7129 4.07644 9.47958 4.11058L9.42499 4.12155C5.20624 5.23799 5.20213 8.82212 5.20213 8.8453C5.17346 11.0946 6.87953 12.4991 8.53239 13.3316C3.1661 12.8886 2.00423 9.75298 1.8568 9.45537C0.689873 5.98864 4.04058 4.11195 4.25071 3.99867C9.91219 1.22663 14.2033 2.49051 14.4926 2.58198C18.4301 4.04092 19.671 6.91539 19.9754 8.6829Z" fill="#0F172A"/>
<path d="M0 5.29182C0 5.29182 5.26902 -2.39378 17.0055 1.81971C17.0055 1.81971 2.90883 -4.04874 0 5.29182Z" fill="#0F172A"/>
<path d="M46.2622 16.0518C46.1189 16.3153 44.8168 18.4622 40.7126 17.7948C42.0448 17.3102 43.9258 17.1099 43.8778 14.8275L43.8832 14.7634C43.8846 14.6419 43.8969 11.7593 40.6608 10.0163L40.6144 9.9945C40.4302 9.91946 36.0803 8.18609 33.7941 10.3207L33.7778 10.3356C33.5922 10.5267 32.9875 11.1559 32.443 11.8357C32.6614 10.4544 33.4065 7.86119 36.5622 7.86941C36.8474 7.84623 40.1163 7.68109 44.4006 11.0373C44.4291 11.0605 47.1726 13.3807 46.2622 16.0518Z" fill="#0F172A"/>
<path d="M47.8161 12.8898C47.8161 12.8898 43.777 5.44652 34.6774 6.67678C34.6774 6.67678 45.6109 4.52493 47.8161 12.8898Z" fill="#0F172A"/>
<path d="M46.5149 31.6367C44.9059 30.4896 41.4743 27.8616 39.3959 24.9518C39.3959 24.9518 35.9313 20.1615 38.3957 16.1616C38.8068 15.4944 38.7313 14.6372 38.1923 14.0682C37.6981 13.5467 36.931 13.389 36.2712 13.6734L34.4316 14.4663C34.4316 14.4663 28.2518 15.5807 23.5409 13.5038C23.5409 13.5038 16.207 10.7647 12.0193 7.88575C11.5365 7.5539 10.8807 7.64874 10.5147 8.10622C10.1147 8.60616 10.2159 9.33922 10.7375 9.71038C12.8178 11.1907 17.6176 14.9604 19.0325 19.1265C19.0325 19.1265 20.8885 24.1642 18.148 27.8527C17.4092 28.8471 17.6248 30.2523 18.6376 30.9656C19.4261 31.5209 20.4843 31.4978 21.2455 30.9056C22.7577 29.729 25.8392 28.0446 30.9364 28.2444C30.9364 28.2444 39.9027 29.2664 45.3777 33.2236C45.7869 33.5194 46.354 33.4522 46.6847 33.0706C47.0616 32.6358 46.9836 31.9709 46.5149 31.6367ZM28.5968 23.3573C27.0453 23.3573 25.7877 22.0996 25.7877 20.5481C25.7877 18.9967 27.0453 17.739 28.5968 17.739C30.1483 17.739 31.4059 18.9967 31.4059 20.5481C31.4059 22.0995 30.1483 23.3573 28.5968 23.3573Z" fill="#0F172A"/>
</svg>
